<svg width="50" height="51" viewBox="0 0 50 51" fill="none" xmlns="http://www.w3.org/2000/svg">
<path d="M24.9998 50.0034C11.1926 50.0034 -0.000233452 38.8105 -0.000233183 25.0034C-0.000232914 11.1963 11.1926 0.00341721 24.9998 0.00341748C38.8069 0.00341775 49.9998 11.1963 49.9998 25.0034C49.9998 38.8105 38.8069 50.0034 24.9998 50.0034Z" fill="#ECECEC"/>
<path d="M24.9998 50.0034C11.1926 50.0034 -0.000233452 38.8105 -0.000233183 25.0034C-0.000232914 11.1963 11.1926 0.00341721 24.9998 0.00341748C38.8069 0.00341775 49.9998 11.1963 49.9998 25.0034C49.9998 38.8105 38.8069 50.0034 24.9998 50.0034Z" stroke="black"/>
<path d="M28.3333 33.6668L20 25.3335L28.3333 17.0002" stroke="black"/>
</svg>
